<svg version="1.2" xmlns="http://www.w3.org/2000/svg" viewBox="0 0 280 74" width="280" height="74">
	<title>CHARGILY DEVELPOERS LOGO SVG FORMAT-svg</title>
	<style>
		.s0 { fill: #ffffff } 
	</style>
	<g id="Layer_1-2">
		<g id="Layer">
			<g id="Layer">
				<path id="Layer" fill-rule="evenodd" class="s0" d="m104.8 36q0 7.5-5.2 12.5-5.3 5-12.9 5-3.6 0-5.7-0.3-2-0.3-2.7-0.9-0.8-0.5-0.8-1.4 0-1.2 2.3-11.2 2.3-10 2.3-12.4 0-1.2-0.3-1.8 3.4-0.8 8.4-0.8 6.9 0 10.8 3 3.8 3 3.8 8.3zm-6.3 0q0-4-2.3-6-2.2-1.9-6.3-1.9h-1.6q-0.2 1.3-2.3 10.5-2.1 9.2-2.3 10.7 0.3 0.7 3.4 0.7 4.8 0 8.1-3.9 3.3-3.8 3.3-10.1zm25-4.4q1.6 1.2 1.6 3.3 0 3.7-3.5 5.7-3.5 2-9.4 2.3-0.3 1.5-0.3 2.4 0 2 1 3.1 0.9 1.1 2.7 1.1 2.5 0 7.2-3.8 0.3 0.5 0.3 1 0 1.2-0.8 2.2-2 2.2-4.2 3.4-2.3 1.2-4.3 1.2-3.6 0-5.7-2.2-2.1-2.1-2.1-5.7 0-6.6 4-10.9 4-4.2 9.1-4.2 2.8 0 4.4 1.1zm-3.4 3.1q0-2-1.7-2-1.6 0-3.2 2.1-1.6 2.1-2.6 5.9 3.6-0.1 5.5-1.6 2-1.6 2-4.4zm30.8-6.4q0 0 0 0 0 0 0 0zm0 0q-1.6 0.3-3.9 3.5-2.3 3.2-4.1 6.8-1.8 3.6-4.1 8.2-2.3 4.6-3.1 6.1-1 0.5-2.2 0.5-3.1 0-3.2-2.9-0.7-10.2-1.4-13.8-0.6-3.7-1.6-4.3 2.2-1.6 4.3-1.6 1.2 0 1.9 0.6 0.7 0.7 1 2.2 0.3 1.6 0.5 4.8 0.3 3.2 0.4 6.4 0.2 3.1 0.2 3.4 3.8-9.3 5.8-13.6 2.1-4.3 3.5-6.1c0.9-1.1 1.9-1.7 2.9-1.7q1.6 0 3.1 1.5zm12.6 3.3q1.6 1.1 1.6 3.3 0 3.7-3.5 5.7-3.5 2-9.4 2.2-0.3 1.6-0.3 2.4 0 2 1 3.2 0.9 1.1 2.7 1.1 2.5 0 7.2-3.8 0.3 0.4 0.3 1 0 1.1-0.8 2.1-2 2.3-4.2 3.5-2.3 1.1-4.2 1.1-3.7 0-5.8-2.1-2.1-2.1-2.1-5.8 0-6.5 4-10.8 4-4.3 9.2-4.3 2.7 0 4.3 1.2zm-3.4 3.1q0-2-1.7-2-1.6 0-3.2 2.1-1.6 2.1-2.6 5.9 3.6-0.1 5.6-1.7 1.9-1.5 1.9-4.3zm17.7-12.2q0 1.7-2.6 13.2-2.6 11.5-2.6 13.5 0 1.4 1.3 2.2-2.3 2-4.3 2-3.1 0-3.1-2.9 0-1.6 2.6-12.9 2.6-11.4 2.6-14.4 0-1.2-0.4-1.9 2.1-1.1 4.1-1.1 2.4 0 2.4 2.3zm18.7 10q2.1 2.1 2.1 5.6 0 6.3-4 10.8-3.9 4.5-9.3 4.5-3.8 0-5.8-2-2.1-2.1-2.1-5.7 0-6.3 3.9-10.8 3.9-4.5 9.3-4.5 3.7 0 5.9 2.1zm-4.7 10.8q0.8-3.1 0.8-6 0-4.3-2.7-4.3-1.8 0-3.4 2.2-1.6 2.2-2.4 5.3-0.8 3.1-0.8 6 0 4.3 2.7 4.3 1.8 0 3.4-2.2 1.5-2.2 2.4-5.3zm26.6-12.7q1.9 0 3 1.4 1 1.5 1 4 0 4.2-1.7 8.2-1.7 4.1-4.6 6.7-3 2.5-6.1 2.5-2 0-4.5-1.6-1.3 6.1-1.3 8.4 0 1.6 0.7 2.4-2.1 1.4-3.7 1.4-3.1 0-3.1-2.8 0-1.5 2.8-13.9 2.9-12.4 2.9-14.8 0-1.3-0.5-1.9 1.9-1.1 4-1.1 2.4 0 2.4 2.3 0 2.2-2.1 8.9 6.1-10.1 10.8-10.1zm-3.1 13.1q1.3-3.3 1.3-6.5 0-2-1.4-2.1-1.6 0-3.9 2.9-2.2 2.9-3.7 6.1-1.6 3.3-1.6 4.6 0 0.7 1.1 1.5 1 0.8 1.8 0.8 1.5 0 3.3-2 1.8-2 3.1-5.3zm25.9-12.1q1.6 1.2 1.6 3.3 0 3.7-3.5 5.7-3.5 2-9.4 2.2-0.3 1.6-0.3 2.4 0 2.1 1 3.2 0.9 1.1 2.7 1.1 2.5 0 7.2-3.8 0.3 0.5 0.3 1 0 1.1-0.9 2.1-1.9 2.3-4.1 3.5-2.3 1.1-4.3 1.1-3.7 0-5.7-2.1-2.1-2.1-2.1-5.8 0-6.5 4-10.8 4-4.2 9.1-4.2 2.7 0 4.4 1.1zm-3.4 3.1q0-2-1.8-2-1.5 0-3.1 2.1-1.6 2.1-2.6 5.9 3.6-0.1 5.5-1.7 2-1.5 2-4.3zm25.2-0.1q-0.6 0.9-0.8 1.4-0.3 0.4-0.6 0.8-0.3 0.4-0.5 0.5-0.3 0.2-0.6 0.2-1.5 0-2.9-1.8-0.6 0.1-1.6 1.3-1 1.2-2.2 3.2-1.2 2.1-2.5 5.4-1.3 3.4-2.2 7.3-0.7 0.4-2 0.4-3.1 0-3.1-2.3 0-0.6 1.7-8.1 1.7-7.5 1.7-9.5 0-1.2-0.4-2 2.1-1 3.9-1 2.5 0 2.5 2.4 0 2.5-2.6 10 6-12.4 9.6-12.4 0.6 0 1.8 1.2 1.2 1.1 1.8 1.4-0.5 0.8-1 1.6zm7.2 1.4q0 0.8 1.2 1.9 1.2 1.1 2.6 2.1 1.4 0.9 2.6 2.5 1.2 1.5 1.2 3.2 0 3.3-2.9 5.5-2.9 2.2-7.1 2.2-5.5 0-5.4-2.9 0-0.7 0.5-2.1 3.2 2.1 5.8 2.1 3.7 0 3.7-2.7 0-0.9-1.2-2.1-1.2-1.1-2.6-2-1.4-0.9-2.6-2.4-1.1-1.6-1.1-3.2 0-3.1 2.8-5.4 2.7-2.3 6.7-2.3 5 0 5 2.6 0 0.9-0.7 2-2.9-1.7-5.1-1.7-1.6 0-2.5 0.7-0.9 0.7-0.9 2z"/>
			</g>
			<g id="Group_13">
				<path id="Path_14" fill-rule="evenodd" class="s0" d="m4.4 19.3c1.3-0.5 2.4-1 3.5-1.5q4.5-1.9 9.1-3.8 5-2.1 10-4.2 3.4-1.5 6.9-2.9 4.1-1.8 8.1-3.5 3.7-1.5 7.3-3.1c0.8-0.6 2-0.3 2.5 0.5q0.1 0.1 0.1 0.2 4.4 5.7 7.9 12.1 2.9 5.4 5 11.2c0.8 2.4 1.5 4.9 2.2 7.4 0.4 1.7 0.7 3.4 1 5q0.9 5.2 1.1 10.4 0.1 5.2-0.3 10.4c0 0.9-0.5 1.6-1.3 2q-2.4 1.4-4.9 2.7-8.5 4.6-17.1 9.3-1.5 0.8-3.1 1.7c-0.9 0.5-1.1 0.3-1.2-0.7-0.2-1.2-0.4-2.4-0.6-3.6q-0.3-1.9-0.7-3.8c-2.2-9.9-6.6-19.2-12.9-27.1-3.4-4.4-7.4-8.3-11.8-11.7q-4.9-3.7-10.3-6.7c-0.1-0.1-0.2-0.2-0.5-0.3zm15.1 4c0.6 0.5 1.1 0.9 1.5 1.3 5.6 4.8 10.4 10.4 14.3 16.6q3.1 4.8 5.4 10.1c0.6 1.6 1.2 3.3 1.8 5 0.5 1.3 0.9 2.7 1.4 4.1 0.2 0.8 0.5 0.9 1.3 0.6 0.7-0.4 1.3-0.7 1.9-1.1q6.1-3.2 12.2-6.5 2-1 3.9-2.1c0.7-0.2 1.1-0.9 1.1-1.6-0.1-2-0.1-4.1-0.3-6.1-0.2-1.8-0.5-3.5-0.7-5.3-0.2-1-0.3-2-0.6-2.9-0.4-2.1-0.9-4.1-1.5-6.2q-1.1-3.2-2.3-6.4-2-5-4.7-9.7-0.7-1.4-1.6-2.6c-0.3-0.6-1-0.8-1.6-0.5q-0.2 0.1-0.5 0.2-6.7 2.8-13.3 5.6-8.3 3.5-16.6 7c-0.3 0.1-0.6 0.3-1.1 0.5zm37.2 33.3c-1.8-0.1-3.3 1.3-3.4 3.1q0 0.1 0 0.3c0 1.9 1.5 3.4 3.4 3.4 1.9 0 3.4-1.5 3.4-3.3 0-1.9-1.4-3.4-3.3-3.5q-0.1 0-0.1 0zm-17.9 13.6q-0.1-0.1-0.2-0.3c-3-5-7-9.3-11.8-12.8-4.5-3.4-9.4-6.2-14.5-8.5-3.9-1.8-7.9-3.4-12-4.8q-0.1 0-0.3-0.1 0.1-0.2 0.2-0.3l9-9.1q2.1-2.2 4.3-4.4c0.7-0.7 0.9-0.7 1.7-0.2q0.9 0.7 1.7 1.4c0.5 0.3 0.6 0.8 0.3 1.3q0 0.1-0.2 0.2-0.5 0.6-1 1.1-3.5 3.4-7 6.7-0.3 0.3-0.7 0.7c-0.2 0.3-0.1 0.6 0.2 0.7q0.5 0.3 1.1 0.5c5.4 1.9 10.4 4.5 14.9 7.9 3.5 2.6 6.6 5.7 9.1 9.3 1.9 2.4 3.4 5.1 4.7 7.9 0.2 0.6 0.4 1.2 0.6 1.7 0.2 0.4 0.2 0.8-0.1 1.1zm-1.7 1q-3.2-2.3-6.7-3.9c-3.2-1.4-6.6-2.4-10-3.1q-7-1.3-14-1.7c-0.5 0-0.9 0-1.5-0.1q0.3-0.4 0.5-0.8 2.7-4.8 5.4-9.6 0.1-0.2 0.2-0.3c0.4-0.6 0.7-0.6 1.3-0.3q0.6 0.4 1.2 0.7c0.2 0.1 0.4 0.4 0.3 0.6q0 0 0 0.1-0.2 0.4-0.5 0.8-1.7 2.7-3.3 5.3c-0.6 0.9-0.4 1.2 0.7 1.4q4.3 0.4 8.6 1.4c4.5 0.9 8.7 2.5 12.7 4.8 1.8 1.1 3.4 2.4 4.9 3.9 0.2 0.2 0.4 0.4 0.2 0.8z"/>
			</g>
		</g>
	</g>
</svg>